PathFileType	4	(X/Y/Z)	D:\TRACE\v60_Jaco2_6-2-23\BothDRS_Motion3_10-platform.trc
DataRate	CameraRate	NumFrames	NumMarkers	Units	OrigDataRate	OrigDataStartFrame	OrigNumFrames
100.00	100.00	      30	5	mm	100.00	876	      7000
Frame#	Time	Left_Front			Right_Front			Left_Aft			Right_Aft			Post			
		X1	Y1	Z1	X2	Y2	Z2	X3	Y3	Z3	X4	Y4	Z4	X5	Y5	Z5	

876	8.750	-770.48956	-17.94976	-656.76782	800.30469	-19.65853	-634.04504	-700.98907	30.79903	478.63849	713.29004	30.81916	581.11676	25.32484	1264.79126	-1024.55139	
877	8.760	-770.42096	-17.80952	-656.71692	800.54150	-19.50136	-634.43652	-700.93866	30.57300	478.74152	713.23260	30.54856	581.10699	25.49655	1265.18970	-1023.79401	
878	8.770	-770.35614	-18.01798	-656.94470	800.44580	-19.29398	-634.46307	-700.87024	30.34535	478.80072	713.19501	30.37043	581.05316	25.55734	1265.67175	-1023.15350	
879	8.780	-770.35913	-17.66730	-656.70563	800.21198	-18.93018	-634.05713	-700.82275	30.19561	478.76505	713.18304	30.34497	581.14893	25.34233	1265.79199	-1022.38525	
880	8.790	-770.28119	-17.51251	-656.70618	800.24127	-18.68428	-634.00739	-700.76123	30.10838	478.82147	713.23065	30.24142	581.25391	25.52646	1266.28613	-1022.16254	
881	8.800	-770.32349	-17.19568	-656.53168	800.21429	-18.48475	-633.97986	-700.57568	29.81974	478.80359	713.29749	30.08733	581.38403	25.39013	1266.56445	-1021.59088	
882	8.810	-770.32507	-17.01409	-656.47443	800.20789	-18.26246	-633.96490	-700.34021	29.45458	478.89038	713.37109	29.90685	581.50616	25.36599	1266.97168	-1020.99078	
883	8.820	-770.35162	-16.72143	-656.42322	800.27466	-18.04634	-633.91107	-700.64227	29.43651	478.97449	713.39038	30.22996	582.03107	25.35803	1267.24329	-1020.57550	
884	8.830	-770.33142	-16.51962	-656.38641	800.30103	-17.87569	-633.79773	-700.32788	29.21029	479.10416	713.64850	30.09805	582.07214	25.43271	1267.46606	-1019.94977	
885	8.840	-770.32849	-16.30528	-656.36383	800.36627	-17.92024	-633.76007	-700.40472	29.08002	479.21185	713.60333	29.85777	582.09204	25.48771	1267.92871	-1019.74829	
886	8.850	-770.10419	-15.73730	-656.22357	800.32922	-17.75093	-633.74213	-700.37585	29.00195	479.38684	713.53839	29.66837	582.14380	25.57837	1268.36646	-1019.27673	
887	8.860	-770.37933	-15.38124	-656.44611	800.27899	-17.29613	-633.76721	-700.91766	29.50096	479.28705	713.50604	29.47272	582.16016	25.60781	1268.62622	-1018.98529	
888	8.870	-770.37616	-15.06021	-656.41449	800.58704	-17.37636	-634.08221	-700.85175	29.36939	479.24905	713.58301	29.33009	582.22668	25.62910	1269.00220	-1018.63318	
889	8.880	-770.14679	-15.05111	-656.36456	800.84460	-17.13717	-633.89807	-700.66315	29.28518	479.32596	713.66016	29.12683	582.30951	25.54691	1269.26648	-1018.35138	
890	8.890	-769.93677	-15.02786	-656.35553	800.92737	-16.83132	-633.52386	-700.68274	29.11650	479.24139	713.63678	28.71445	582.50330	25.40868	1269.32446	-1017.88293	
891	8.900	-769.81262	-14.90889	-656.28625	800.95233	-16.54443	-633.59143	-700.39417	28.63758	479.57672	713.72260	28.64714	582.53729	25.82785	1269.65979	-1017.73834	
892	8.910	-769.77960	-14.69483	-656.26526	801.10754	-16.61521	-633.51160	-700.25586	28.51376	479.56400	714.17664	28.74905	582.48138	26.20756	1269.87915	-1017.24951	
893	8.920	-769.72772	-14.62262	-656.27411	801.24884	-16.43130	-633.45209	-700.17279	28.43586	479.63223	714.15088	28.62086	582.58539	26.43466	1270.12927	-1016.72534	
894	8.930	-769.62195	-14.53324	-656.20129	801.40259	-16.18850	-633.34143	-699.94855	28.30354	479.74167	714.51691	28.50691	582.54114	26.52611	1270.31763	-1016.21808	
895	8.940	-769.49707	-14.44198	-656.16785	801.51514	-16.09342	-633.35620	-699.72626	28.09920	479.71042	714.51819	28.41853	582.54004	26.48334	1270.39014	-1016.10657	
896	8.950	-769.37274	-14.22917	-656.04700	801.61572	-16.01592	-633.30359	-699.60706	28.02035	479.73700	714.55652	28.30534	582.58813	26.55370	1270.60437	-1015.80768	
897	8.960	-769.18280	-14.10094	-656.02692	801.69666	-16.01638	-633.28510	-699.40674	27.74759	479.86267	714.75751	28.20949	582.67780	26.61943	1270.72839	-1015.69043	
898	8.970	-768.87439	-14.01840	-655.86920	801.81274	-15.84943	-633.27100	-699.26050	27.68006	479.85233	715.01898	28.23907	582.73517	26.75550	1270.88672	-1015.44781	
899	8.980	-768.57855	-13.92777	-655.75336	802.02753	-15.63787	-633.26862	-699.15747	27.61475	479.87231	715.13684	28.04358	582.74176	26.89267	1271.11829	-1015.27765	
900	8.990	-768.56982	-13.69448	-655.42096	802.17810	-15.50441	-633.33435	-698.93811	27.59981	479.86276	715.53345	28.02588	582.74445	27.05724	1271.56226	-1015.15192	
901	9.000	-768.42010	-13.67826	-655.44916	802.32648	-15.48909	-633.28223	-698.76465	27.49516	479.91156	715.74615	28.00233	582.72736	27.18138	1271.87219	-1014.89740	
902	9.010	-768.18268	-13.83772	-655.54932	802.48425	-15.37862	-633.27881	-698.68097	27.38596	479.94470	715.77838	27.94702	582.68689	27.41012	1271.95410	-1014.66962	
903	9.020	-767.65009	-13.99226	-655.78021	802.78351	-15.51194	-633.63208	-698.47479	27.13667	480.17944	715.94843	27.93586	582.72546	27.73186	1272.02832	-1014.36322	
904	9.030	-767.57104	-13.91354	-655.81281	802.82227	-15.25853	-633.26764	-698.30334	27.26223	480.16049	716.06293	27.87772	582.72961	27.71198	1271.93848	-1013.94507	
905	9.040	-767.25330	-13.83901	-655.88019	803.20428	-15.10845	-633.03107	-698.07367	27.26726	480.12631	716.24121	27.73047	582.77692	28.14540	1272.22644	-1014.07440	
